<svg width="22" height="56" viewBox="0 0 22 56" fill="none" xmlns="http://www.w3.org/2000/svg">
<g clip-path="url(#clip0_2_484)">
<path d="M16.4722 13.1505H5.52777C2.47639 13.1505 0 15.6178 0 18.658V34.8552C0 36.0075 0.934363 36.9384 2.09088 36.9384C3.2474 36.9384 4.18176 36.0075 4.18176 34.8552V33.0063H4.21443V52.6213C4.21443 54.4832 5.73032 55.9935 7.59905 55.9935C9.46778 55.9935 10.9837 54.4832 10.9837 52.6213V35.8838H11.0033V52.6213C11.0033 54.4832 12.5192 55.9935 14.3944 55.9935C16.2697 55.9935 17.779 54.4832 17.779 52.6213V33.0063H17.8117V34.8552C17.8117 36.0075 18.7461 36.9384 19.9026 36.9384C21.0591 36.9384 21.9935 36.0075 21.9935 34.8552V18.658C21.9935 15.6178 19.5171 13.1505 16.4657 13.1505H16.4722Z" fill="#F6F5EF"/>
<path d="M11.003 10.1037C13.8033 10.1037 16.0734 7.84191 16.0734 5.05185C16.0734 2.26179 13.8033 0 11.003 0C8.20271 0 5.93262 2.26179 5.93262 5.05185C5.93262 7.84191 8.20271 10.1037 11.003 10.1037Z" fill="#F6F5EF"/>
</g>
<defs>
<clipPath id="clip0_2_484">
<rect width="22" height="56" fill="white"/>
</clipPath>
</defs>
</svg>
