<svg width="152" height="48" viewBox="0 0 152 48" fill="none" xmlns="http://www.w3.org/2000/svg">
<path d="M38.6323 17.4812C35.7683 16.0413 31.8632 16.6155 28.9167 18.915C27.3076 20.1715 25.9703 21.5392 24.5536 22.9881C23.4483 24.1184 22.3033 25.2877 20.9934 26.4269C18.8042 28.3297 16.8165 29.2736 15.1036 29.2495C12.9907 29.2135 12.0076 28.8317 11.055 27.6804C9.81226 26.1835 9.21077 22.8318 8.78636 19.7507C8.33752 16.4892 5.56208 16.2668 4.6522 16.1916C3.05532 16.0624 1.83095 16.4411 0.908857 17.3519C-0.0895701 18.3349 -0.297194 20.1505 0.444756 21.401L0.475289 21.4551C0.609634 21.6835 0.756193 21.93 0.93939 22.1915C0.99435 22.411 1.04931 22.6394 1.10427 22.8739C1.5531 24.7646 2.11186 27.1183 4.14535 29.8988C6.63379 33.3016 10.31 35.1202 14.7739 35.1593C14.8075 35.1593 14.841 35.1593 14.8746 35.1593C19.0515 35.1593 22.2758 32.8747 24.6207 30.8788C25.5337 30.1032 26.4924 29.1774 27.4176 28.2846C29.2251 26.5412 31.2739 24.5632 32.7211 23.9951C33.6707 23.6224 34.4737 23.5683 34.8676 23.8508C35.2218 24.1063 35.5668 24.9059 35.463 26.3879C35.2004 30.1694 32.8891 34.6392 31.1731 37.6722C30.6388 38.6161 30.8342 39.7433 31.6433 40.4167C32.0555 40.7594 32.5593 40.9277 33.0814 40.9277C33.6432 40.9277 34.2264 40.7293 34.721 40.3355C37.6644 38.0029 41.1421 33.2625 42.2688 27.9359C43.4107 22.5492 41.2673 18.8008 38.6354 17.4752L38.6323 17.4812Z" fill="#321F17"/>
<path d="M102.437 18.3462C101.411 17.8472 100.238 17.8983 99.2214 18.4845C98.681 18.7971 98.2535 19.263 97.8719 19.8311C97.3253 19.2209 96.7055 18.749 96.0582 18.4213C93.1942 16.9815 89.289 17.5586 86.3426 19.8552C84.7335 21.1117 83.3962 22.4794 81.9795 23.9283C80.8742 25.0585 79.7292 26.2278 78.4193 27.3671C76.1446 29.348 74.1691 30.349 72.5478 30.349C72.5234 30.349 72.502 30.349 72.4776 30.349C70.2273 30.3099 69.4609 30.0364 68.5694 28.9632C67.8641 28.1156 66.9481 26.4112 66.3038 23.0295C67.287 23.3361 68.3404 23.5014 69.409 23.5014C69.5739 23.5014 69.7388 23.4984 69.9037 23.4894C74.2638 23.282 77.2316 21.0185 78.0438 17.2791C78.7063 14.219 77.6957 11.2852 75.2683 9.22911C72.1692 6.6019 68.8014 6.97764 66.8626 7.67502C66.0657 7.35038 65.1558 7.24818 64.2551 7.40148C62.9513 7.62392 61.8827 8.35738 61.3239 9.41247C61.0552 9.92048 59.1378 13.7831 60.5972 17.733C59.611 17.8502 58.7958 18.226 58.1393 18.8722C57.1409 19.8552 56.9333 21.6708 57.6752 22.9213L57.7088 22.9784C57.8432 23.2068 57.9897 23.4533 58.1729 23.7178C58.1912 23.787 58.2096 23.8591 58.2279 23.9283C58.7408 25.8942 59.321 28.1216 61.5132 31.1155C63.965 34.4642 67.6351 36.2557 72.1295 36.2948C72.1601 36.2948 72.1906 36.2948 72.2211 36.2948C76.7858 36.2948 80.3337 33.2768 82.0436 31.8189C82.9077 31.0825 83.7992 30.2408 84.7396 29.348C86.6754 27.5174 88.8677 25.4433 90.3608 24.8541C91.2462 24.5054 91.9759 24.4453 92.3149 24.6888C92.6446 24.9262 92.9927 25.7589 92.8828 27.334C92.6202 31.1155 90.3088 35.5854 88.5929 38.6154C88.0586 39.5593 88.254 40.6865 89.0631 41.3598C89.4753 41.7025 89.9821 41.8708 90.5012 41.8708C91.063 41.8708 91.6462 41.6725 92.1408 41.2787C95.0842 38.9461 98.5619 34.2056 99.6886 28.8791C99.8596 28.0765 99.9542 27.31 99.9878 26.5825C100.904 26.1978 101.847 25.7499 102.44 25.3741C103.838 24.4904 104.601 22.807 104.388 21.0876C104.241 19.9093 103.49 18.8572 102.433 18.3432L102.437 18.3462ZM67.7114 13.9154C68.032 13.5878 68.5511 13.4224 69.2564 13.4224C69.2808 13.4224 69.3052 13.4224 69.3297 13.4224C70.0319 13.4344 70.5785 13.6479 70.954 14.0627C71.299 14.4414 71.4761 14.9795 71.4242 15.4935C71.2196 17.6007 69.8334 17.6157 69.2442 17.6248C67.9404 17.6338 67.3053 17.3302 67.2107 15.5266C67.1771 14.8683 67.3633 14.2671 67.7084 13.9154H67.7114Z" fill="#321F17"/>
<path d="M151.647 29.3721C151.226 28.5725 150.463 27.9803 149.504 27.7038C148.188 27.328 145.15 26.6607 139.578 26.4232C138.561 26.3781 137.565 26.3481 136.634 26.33C136.998 25.6928 137.33 25.0104 137.63 24.283C137.645 24.2439 137.657 24.2078 137.672 24.1718C138.512 23.9614 139.33 23.6277 140.115 23.1588C142.268 21.8752 144.023 18.9955 144.698 15.6439C145.306 12.6319 145.892 9.44256 145.809 6.42758C145.73 3.52081 145.07 1.37756 142.106 0.352529C139.852 -0.426015 138.023 0.208243 137.065 1.06194C135.956 2.04489 135.449 4.02581 136.515 5.64002C136.567 5.71817 136.625 5.80234 136.692 5.89853C136.961 6.2863 137.346 6.84841 137.669 7.65702C137.611 7.62395 137.55 7.59389 137.486 7.56383C136.42 7.04079 134.906 7.20913 134.146 7.4496C132.989 7.81934 131.031 9.1119 129.657 10.9576C129.648 10.4916 129.648 10.0227 129.657 9.54777C129.715 6.77928 130.042 5.70615 130.317 5.08091C130.928 3.69516 130.537 2.23727 129.34 1.45271C128.36 0.809435 126.47 0.442708 126.051 0.385595C125.129 0.259344 124.244 0.478779 123.56 0.998811C122.937 1.47375 122.543 2.15611 122.452 2.92563C122.369 3.62302 122.253 4.78332 122.198 6.80633C122.168 7.96663 122.085 14.0026 123.566 18.755C124.662 22.275 126.98 23.781 128.793 24.271C128.656 24.4183 128.512 24.5625 128.363 24.6948C126.958 25.9182 124.61 26.6908 120.256 27.3551C119.258 27.5084 118.43 28.0314 117.927 28.834C117.429 29.6246 117.313 30.6045 117.606 31.5244C117.85 32.2849 118.308 33.352 119.111 34.1125C119.823 34.7858 120.717 35.1465 121.636 35.1465C121.847 35.1465 122.058 35.1285 122.271 35.0894C122.525 35.0413 122.812 34.9872 123.136 34.9211C123.71 34.8069 124.406 34.6686 125.248 34.5273C125.236 34.5453 125.227 34.5604 125.215 34.5784C124.39 35.9341 124.332 37.404 124.336 37.8218C124.345 39.4871 124.302 40.1965 124.216 40.9931C124.189 41.2426 124.155 41.4741 124.11 41.7657C124.052 42.1414 123.978 42.6103 123.902 43.2837C123.679 45.2406 124.394 46.6203 126.027 47.3898C126.671 47.6934 127.483 48 128.467 48C128.824 48 129.202 47.9609 129.602 47.8648C131.807 47.7686 139.709 47.6513 140.442 47.6573C141.318 47.6664 143.364 47.3958 143.507 44.6965C143.507 44.6484 143.513 44.6033 143.516 44.5552C143.519 44.4981 143.864 38.7447 142.732 35.9912C142.332 35.0173 141.803 34.2207 141.153 33.6045C144.304 33.6886 146.466 33.9351 148.218 34.1936C150.545 34.5363 151.458 32.9702 151.794 32.0083C152.114 31.0915 152.059 30.1536 151.644 29.3691L151.647 29.3721ZM136.017 40.422C135.685 40.425 135.306 40.431 134.885 40.437L134.188 40.446C133.462 40.4551 132.79 40.4731 132.222 40.4911C132.265 40.0643 132.308 39.6435 132.335 39.3549C132.341 39.3008 132.344 39.2407 132.35 39.1805C132.454 39.1745 132.555 39.1715 132.659 39.1685C133.172 39.1535 133.59 39.1324 133.963 39.1144C134.723 39.0753 135.224 39.0513 135.956 39.1054C135.962 39.1054 135.966 39.1054 135.972 39.1054C135.987 39.5533 136.005 40.0012 136.02 40.425L136.017 40.422ZM138.139 13.1669C138.03 13.9575 137.822 14.7721 137.459 15.5747C136.738 17.1619 135.886 18.0005 134.927 18.0727C134.695 18.0907 134.588 18.0576 134.579 18.0576C134.359 17.8142 134.363 16.6238 134.735 15.9655C135.443 14.709 136.176 14.192 137.55 13.5096C137.767 13.4014 137.965 13.2872 138.146 13.1669H138.139Z" fill="#321F17"/>
<path d="M15.0682 31.2392C12.6438 31.1972 10.9676 30.7192 9.48978 28.9397C8.01199 27.1601 7.32194 23.9227 6.78456 20.018C6.57083 18.4759 5.61821 18.2655 4.48543 18.1753C3.37709 18.0851 2.76338 18.3407 2.33591 18.7585C1.98479 19.1042 1.90235 19.9188 2.1863 20.3997C2.3695 20.7063 2.54964 21.022 2.79696 21.3316C3.34961 23.3937 3.60914 25.7714 5.78003 28.7383C7.95398 31.7082 11.0683 33.139 14.7873 33.1721C18.5062 33.2051 21.4587 30.9386 23.2937 29.3785C26.06 27.0219 29.3148 23.1953 31.9651 22.1552C35.3573 20.8236 37.7572 22.3807 37.4702 26.5349C37.174 30.7853 34.652 35.6039 32.9299 38.6489C32.7651 38.9375 33.0948 39.0758 33.449 38.7962C36.2122 36.6049 39.3052 32.1741 40.2884 27.5389C41.2013 23.2374 39.696 20.2524 37.7114 19.2545C35.7298 18.2565 32.6948 18.509 30.1698 20.4779C27.4157 22.6242 25.3517 25.2934 22.3319 27.9207C19.9717 29.9737 17.5138 31.2843 15.0682 31.2422V31.2392Z" fill="white"/>
<path d="M72.4428 32.3388C70.0184 32.2968 68.4826 32.0022 67.0079 30.2226C65.5332 28.4431 64.5561 25.4432 64.0187 21.5384C63.805 19.9964 62.8524 19.7859 61.7196 19.6958C60.6112 19.6056 59.9975 19.8611 59.5701 20.2789C59.2189 20.6246 59.1365 21.4392 59.4205 21.9202C59.6037 22.2268 59.7838 22.5424 60.0311 22.852C60.5838 24.9141 60.9776 26.9852 63.1516 29.9551C65.3255 32.925 68.4277 34.2777 72.1466 34.3107C75.8655 34.3438 78.8883 31.8789 80.7202 30.3188C83.4865 27.9622 86.9612 24.0544 89.6114 23.0113C93.0037 21.6797 95.1868 23.3179 94.8967 27.4722C94.6005 31.7226 92.0785 36.5412 90.3564 39.5862C90.1916 39.8748 90.5213 40.0131 90.8755 39.7335C93.6387 37.5422 96.7317 33.1114 97.7149 28.4762C98.6278 24.1746 97.1225 21.1897 95.1379 20.1917C93.1563 19.1938 90.1213 19.4463 87.5963 21.4152C84.8422 23.5614 82.7782 26.2307 79.7585 28.8579C77.3983 30.911 74.8885 32.3809 72.4458 32.3388H72.4428Z" fill="white"/>
<path d="M73.9518 10.7352C70.9229 8.16811 67.6009 9.3735 66.743 9.91758C65.717 8.98273 63.7324 9.16309 63.1187 10.3294C62.505 11.4957 60.8837 15.6469 63.6194 19.0016C65.1064 20.8232 67.6254 21.6078 69.8085 21.5026C73.6648 21.3192 75.5181 19.3984 76.0677 16.8644C76.5929 14.4355 75.7471 12.2592 73.9518 10.7352ZM73.4358 15.683C73.2404 17.688 72.074 19.5787 69.268 19.6118C66.462 19.6449 65.3201 18.0758 65.1919 15.6259C65.0942 13.7141 66.1201 11.3815 69.3566 11.4326C72.1961 11.4777 73.6251 13.678 73.4327 15.683H73.4358Z" fill="white"/>
<path d="M97.724 24.286C98.64 22.8011 99.4003 20.6819 100.24 20.1979C101.254 19.6148 102.264 20.3663 102.386 21.3342C102.509 22.2991 102.109 23.2249 101.351 23.7029C100.594 24.1808 98.9545 24.8962 97.8431 25.275C97.0493 25.5455 97.092 25.3111 97.724 24.289V24.286Z" fill="white"/>
<path d="M125.779 2.35725C125.088 2.26407 124.53 2.60074 124.463 3.15684C124.395 3.71595 124.276 4.81312 124.221 6.86018C124.166 8.90724 124.249 14.1557 125.501 18.1716C126.753 22.1876 129.733 22.4762 130.169 22.4762C130.948 22.4762 131.165 22.1305 131.262 21.875C131.36 21.6195 131.305 21.373 131.055 21.1445C130.3 20.4622 129.461 20.3209 128.67 18.0604C127.879 15.7999 127.574 12.5354 127.638 9.50242C127.702 6.46941 128.084 5.14979 128.465 4.28407C128.612 3.95643 128.71 3.42136 128.221 3.10273C127.733 2.7841 126.383 2.4324 125.779 2.35124V2.35725Z" fill="#F39800"/>
<path d="M134.766 9.34351C133.85 9.63509 131.542 11.2042 130.559 13.3384C129.163 16.3684 129.579 20.706 132.876 21.9325C135.56 22.9305 137.612 22.3263 139.065 21.4575C140.522 20.5888 142.088 18.3644 142.717 15.2532C143.346 12.1421 143.865 9.21425 143.792 6.47882C143.715 3.61715 143.01 2.76947 141.438 2.2284C139.865 1.68732 138.821 2.1803 138.418 2.53801C138.015 2.89572 137.7 3.78849 138.207 4.55501C138.714 5.32153 140.17 7.11008 140.271 10.603C140.32 12.3555 140.219 14.3845 139.306 16.3865C138.403 18.3734 137.065 19.9065 135.081 20.0537C131.896 20.2882 132.088 16.5578 132.968 15.0007C133.908 13.3324 134.949 12.5749 136.638 11.7363C137.117 11.4988 137.749 11.0419 137.584 10.5309C137.371 9.87256 137.102 9.59901 136.583 9.34351C136.198 9.15413 135.319 9.16616 134.766 9.34351Z" fill="#F39800"/>
<path d="M134.428 20.7098C133.017 20.6827 132.638 21.3711 132.531 21.7889C132.425 22.2068 131.478 24.6386 129.707 26.1836C127.936 27.7287 125.292 28.6004 120.572 29.3219C119.683 29.4571 119.305 30.2026 119.537 30.927C119.769 31.6515 120.117 32.3008 120.514 32.6795C120.911 33.0583 121.399 33.2296 121.903 33.1364C123.677 32.8118 127.048 31.9641 133.912 31.6966C140.879 31.423 145.013 31.7146 148.522 32.2346C149.065 32.3158 149.563 32.2978 149.886 31.3689C150.21 30.4401 149.697 29.8329 148.94 29.6164C147.52 29.2106 144.586 28.6305 139.49 28.4111C136.684 28.2908 133.796 28.2638 132.415 28.363C133.68 27.3049 134.849 25.7478 135.753 23.5414C136.656 21.332 135.282 20.7278 134.428 20.7128V20.7098Z" fill="#F39800"/>
<path d="M140.861 36.7429C140.003 34.6628 138.586 34.0225 136.809 34.0225C136.082 34.0225 129.893 34.3261 129.026 34.5034C128.159 34.6808 127.408 34.8431 126.95 35.5976C126.492 36.3521 126.355 37.2539 126.358 37.81C126.367 39.5354 126.321 40.314 126.229 41.1977C126.159 41.856 126.043 42.349 125.912 43.5033C125.781 44.6576 126.064 45.2017 126.901 45.5954C127.738 45.9892 128.416 46.1395 129.298 45.887C131.206 45.7878 139.627 45.6586 140.467 45.6676C141.548 45.6796 141.459 44.9973 141.505 44.4021C141.551 43.8099 141.719 38.817 140.864 36.7399L140.861 36.7429ZM134.214 42.4362C132.351 42.4602 130.907 42.5444 130.434 42.5444C129.96 42.5444 130.031 42.2889 130.052 41.9492C130.073 41.6065 130.254 39.9412 130.324 39.1747C130.397 38.3751 130.397 37.5605 130.312 37.2419C130.48 37.323 131.591 37.2118 132.599 37.1818C134.192 37.1337 134.864 37.0315 136.107 37.1216C137.349 37.2118 137.93 37.4463 137.948 37.8401C137.966 38.2338 138.073 41.5975 138.146 42.4362C137.707 42.3821 136.159 42.4121 134.217 42.4362H134.214Z" fill="#F39800"/>
</svg>
