<svg width="264" height="320" viewBox="0 0 264 320" fill="none" xmlns="http://www.w3.org/2000/svg">
<path d="M262.017 270.298C247.63 275.065 232.62 277.852 217.427 278.182C209.337 278.366 201.21 277.889 193.192 276.715C188.909 276.092 184.626 275.285 180.379 274.295C177.487 273.635 174.595 272.828 171.703 272.095C175.62 268.647 179.207 264.577 181.77 260.103C183.418 257.206 184.772 254.125 186.163 251.081C189.824 242.94 193.082 234.542 195.901 226.071C200.038 213.785 203.333 201.243 205.822 188.518C208.568 174.436 210.106 160.17 210.984 145.868C211.277 140.954 211.35 136.003 210.948 131.089C210.435 124.855 209.227 118.694 207.799 112.606C204.724 99.4406 199.965 85.3584 188.506 77.1071C182.795 72.9998 175.766 71.3862 168.81 72.303C161.232 73.2932 154.606 76.7404 148.492 81.1044C146.479 82.5346 144.392 84.0382 142.196 85.175C143.66 83.2314 146.589 81.9845 148.419 80.7743C151.421 78.794 154.423 76.8871 157.535 75.0901C159.292 74.1 160.537 72.7431 161.379 70.9095C162.074 69.4059 162.587 67.3522 161.269 66.032C159.878 64.6751 157.462 64.0884 155.668 63.6483C149.7 62.1814 143.367 61.888 137.253 62.0347C130.883 62.1814 124.184 62.8415 118.29 65.4086C117.082 65.922 115.947 66.5454 114.885 67.3522C113.238 68.5991 112.139 70.0293 112.323 72.2663C112.506 74.43 112.615 76.777 113.165 78.8674C113.787 81.2511 115.251 83.1214 117.338 84.3683C117.704 84.5883 118.034 84.6616 118.363 84.5883C119.754 84.6616 121.182 84.735 122.573 84.5883C123.195 84.5149 123.854 84.4416 124.477 84.3316C123.671 88.4389 125.685 93.0596 129.346 95.15C127.442 96.3968 124.733 96.2501 122.61 95.4433C119.059 94.1231 117.008 90.4926 115.727 87.1554C114.958 85.1017 114.373 83.0114 113.787 80.921C113.055 78.4273 112.176 75.9702 111.188 73.5865C109.247 68.8558 106.941 64.3084 104.452 59.871C100.534 52.8299 95.9582 46.3389 90.1374 40.7647C83.987 34.8604 77.0679 29.9096 68.9041 27.2325C60.667 24.5188 51.9906 24.5554 43.4973 25.8756C40.9346 26.279 38.372 26.7558 35.8826 27.4159C33.5396 28.076 31.0136 28.8461 28.9268 30.093C26.8767 31.3398 25.7052 33.2468 25.4124 35.6305C25.1195 38.0142 25.5588 40.508 25.7418 42.8917C25.9615 45.5321 26.1079 48.2092 26.4008 50.8496C26.6205 52.8666 27.1696 55.0669 29.0001 56.2038C33.1369 58.8075 36.1388 53.8567 38.5184 51.3263C41.2275 48.5026 45.1813 47.329 48.9887 46.8523C53.1621 46.3022 57.5186 46.3389 61.692 46.7056C66.0485 47.0723 70.405 48.1358 74.0659 50.6662C77.6903 53.1966 80.0698 57.0839 82.2664 60.8245C84.7558 65.0419 87.3917 69.3692 88.0506 74.32C88.7096 79.3808 87.6846 84.4783 86.4398 89.3557C86.33 89.7958 86.2202 90.2358 86.0371 90.6759C86.6595 87.2654 86.7327 83.7081 85.2317 80.5176C83.6209 77.1071 80.1431 74.3933 76.2625 74.65C75.274 74.7234 74.3222 75.6402 74.6883 76.7404C75.6401 79.5642 74.3954 82.498 72.2355 84.3683C70.222 86.1285 67.4763 86.8987 64.8404 87.2287C64.1083 87.2287 63.3395 87.3021 62.6073 87.4487C60.7768 87.7788 61.2161 90.7859 63.0466 90.6759C63.7788 90.6392 64.511 90.5659 65.2065 90.4926C67.879 90.5292 70.5149 91.7394 72.2355 93.7931C74.4686 96.3968 74.8713 100.101 73.6999 103.255C73.1507 104.758 74.9446 105.638 76.1161 105.125C84.2067 101.458 92.8831 98.7072 101.816 98.4505C108.698 98.2671 115.764 99.3673 122.244 101.641C125.612 102.851 128.98 104.465 131.652 106.922C131.725 106.995 131.835 107.069 131.908 107.142C141.83 114.733 147.431 126.358 150.616 138.093C152.19 143.888 153.215 149.792 153.947 155.733C154.753 162.444 155.302 169.192 155.302 175.976C155.265 193.359 152.117 210.558 148.383 227.464C146.589 235.716 144.539 243.967 142.049 252.035C140.841 256.032 139.523 259.956 138.059 263.88C136.668 267.584 135.276 271.325 133.446 274.808C130.005 281.373 124.111 286.177 117.411 289.147C110.931 291.971 103.207 292.448 96.3609 290.908C91.016 289.697 86.0738 287.46 82.1932 283.5C78.0563 279.319 75.3839 273.855 73.407 268.391C71.723 263.733 70.3684 258.966 69.0871 254.199C67.4397 248.221 65.9753 242.207 64.6208 236.156C61.7287 223.174 59.3491 210.045 58.7633 196.696C58.1043 181.074 58.2142 165.341 59.6785 149.755C60.1911 144.291 60.85 138.79 61.9849 133.399C62.7903 129.549 63.6323 126.138 65.6824 123.094C66.4878 121.884 67.3665 120.674 68.1719 119.427C68.9041 118.327 69.6728 117.19 69.9291 115.87C70.4782 113.156 69.4166 109.929 66.4146 109.416C63.5225 108.902 60.3375 109.856 58.2508 111.946C55.7247 114.476 53.5648 117.557 51.6977 120.564C44.1196 132.593 40.715 146.895 39.5435 160.904C38.2988 175.573 39.5435 190.425 41.8865 204.911C44.3759 220.166 48.2931 235.202 52.9791 249.908C55.2854 257.059 57.9213 264.1 60.4473 271.178C60.8134 272.241 62.3144 277.486 59.7518 276.825C58.1776 276.422 56.64 275.322 55.2122 274.552C53.7112 273.745 52.2103 272.938 50.7093 272.095C44.8518 268.794 39.1774 265.127 34.345 260.433C29.2197 255.445 25.4124 249.431 23.2158 242.61C20.8362 235.275 20.0308 227.574 19.1888 219.91C18.3102 211.952 17.2119 204.067 15.2716 196.293C11.2812 180.23 5.24071 164.608 3.66651 147.995C2.86111 139.67 3.00755 131.272 4.06921 122.984C5.09427 115.1 6.85151 107.032 9.89007 99.624C11.2812 96.2135 13.1117 92.8763 15.6743 90.2358C18.0539 87.7788 21.0559 86.0552 24.3507 85.1017C29.9519 83.4514 35.7361 84.1849 41.374 85.2117C41.3007 86.752 41.5936 88.1822 42.4722 89.6124C43.9732 92.0695 46.2796 94.0865 48.8056 95.4067C50.9289 96.5068 53.5282 97.3503 55.9444 96.6902C58.3972 95.9934 59.5687 93.6831 59.4223 91.226C59.2392 88.3289 56.2007 86.3119 53.8577 85.2117C51.1486 83.9649 48.2565 83.1947 45.3277 82.608C45.7671 81.4344 46.3894 80.3343 47.1216 79.3074C50.27 74.9434 55.6515 72.6331 60.6304 70.9828C67.037 68.8191 73.9195 68.0123 80.619 69.0758C81.4976 69.2225 82.3762 68.8558 82.6325 67.939C82.8521 67.1689 82.3762 66.0687 81.4976 65.922C72.4551 64.4918 63.3761 65.9953 55.0292 69.6626C49.4646 72.1196 43.9732 76.0069 42.0695 81.9845C35.4799 80.811 28.7072 80.0409 22.264 82.3513C18.4932 83.7081 15.0886 85.9452 12.4893 88.989C9.74363 92.2162 7.83996 96.0301 6.33898 99.9907C3.08076 108.645 1.28691 117.96 0.444904 127.128C-0.397107 136.517 -0.0310152 146.015 1.43335 155.293C2.89772 164.571 5.57019 173.556 8.20605 182.577C10.8053 191.525 13.4046 200.51 14.7957 209.751C16.1136 218.48 16.5529 227.318 18.2736 236.009C19.9576 244.297 23.0328 252.072 28.4143 258.673C33.2833 264.65 39.6533 269.234 46.2064 273.158C49.4646 275.102 52.8326 276.899 56.2007 278.659C58.0311 279.613 60.1179 280.749 62.1314 279.686C63.5957 278.916 64.2913 277.449 64.4743 275.872C64.9137 272.241 63.0832 268.721 61.8751 265.384C60.4107 261.46 59.0196 257.499 57.7016 253.502C52.1371 236.816 47.5609 219.763 44.8518 202.38C42.3258 186.281 41.2641 169.595 43.7169 153.423C44.925 145.575 46.9019 137.727 50.1602 130.429C51.8442 126.688 53.8211 123.058 56.1641 119.721C57.3356 118.07 58.5803 116.457 59.8982 114.953C61.0331 113.67 62.2778 112.789 63.9984 112.533C64.9137 112.386 66.0851 112.276 66.5611 113.046C67.22 114.146 66.7075 115.577 66.0851 116.567C64.5842 119.024 62.5707 121.261 61.3992 123.901C59.4955 128.119 58.6535 132.813 57.9213 137.36C55.3587 153.202 54.8827 169.448 55.139 185.511C55.2488 193.872 55.5417 202.197 56.64 210.485C57.6284 218.076 59.0196 225.631 60.5938 233.112C62.0947 240.153 63.7788 247.121 65.6458 254.052C67.1468 259.589 68.6478 265.164 70.7345 270.518C73.1141 276.679 76.3357 282.803 81.4244 287.204C86.6229 291.751 93.359 294.098 100.168 294.795C108.369 295.638 116.642 293.878 123.671 289.551C127.113 287.424 130.481 284.783 133.007 281.593C135.752 278.146 137.546 274.112 139.23 270.041C146.442 252.365 150.799 233.625 154.35 214.922C156.18 205.167 157.681 195.339 158.304 185.438C158.853 176.783 158.597 168.165 157.718 159.547C156.327 145.905 153.727 131.932 146.955 119.831C143.66 113.926 139.34 108.719 134.032 104.611C131.652 102.411 128.87 100.761 125.868 99.4406C127.186 99.4406 128.467 99.2206 129.675 98.7439C131.359 98.0471 132.75 96.9469 133.739 95.4067C134.288 94.5265 133.775 93.2063 132.75 92.9863C128.687 92.0695 126.344 86.862 128.504 83.2314C129.09 82.2412 128.357 80.591 127.076 80.7743C125.648 80.9577 123.964 81.2511 122.683 81.3978C121.402 81.5445 120.12 81.5078 118.802 81.4345C115.874 79.4175 116.02 75.5669 115.691 72.3397C115.617 71.6062 115.581 71.2395 116.093 70.7628C116.496 70.3594 116.716 70.176 117.082 69.956C117.997 69.3325 118.985 68.7824 120.01 68.3424C125.063 66.2154 131.14 65.6286 136.668 65.4452C142.342 65.2619 148.163 65.5186 153.691 66.6921C154.716 66.9121 155.741 67.1689 156.729 67.4989C157.132 67.6456 157.535 67.7556 157.901 67.939C158.011 67.9757 158.084 68.0123 158.157 68.049C158.34 68.1223 158.487 68.2324 158.67 68.3057C158.67 68.3057 158.743 68.3424 158.853 68.4157C158.743 68.8558 158.34 69.9193 158.267 70.066C157.315 71.7529 155.924 72.3763 154.277 73.3298C151.348 75.0534 148.529 76.9604 145.673 78.794C142.232 80.9944 137.766 83.3414 138.059 88.1088C138.132 89.1357 139.047 90.0158 140.145 89.6858C143.587 88.6223 146.589 86.6419 149.481 84.5883C152.446 82.498 155.411 80.4443 158.67 78.8674C164.93 75.8602 172.215 74.43 179.024 76.2636C191.435 79.6008 198.537 92.4362 202.125 103.841C204.212 110.406 205.676 117.263 206.811 124.085C207.616 128.962 208.019 133.913 208.019 138.9C208.019 143.888 207.58 148.875 207.213 153.863C206.664 161.344 205.859 168.788 204.724 176.233C202.711 189.435 199.745 202.527 195.974 215.326C193.156 224.861 189.861 234.212 186.053 243.417C184.15 248.001 181.99 252.842 179.647 257.389C176.901 262.707 172.691 267.474 167.895 271.251C160.244 269.381 151.824 267.951 144.539 271.655C144.465 271.655 144.356 271.728 144.282 271.765C144.209 271.801 144.136 271.838 144.063 271.875C141.866 273.195 139.706 274.772 137.949 276.642C136.887 277.779 135.789 279.246 135.899 280.896C136.045 283.023 138.095 284.05 139.926 284.417C141.866 284.82 143.66 284.6 145.6 284.307C149.005 283.83 152.373 282.95 155.595 281.776C160.244 280.053 164.6 277.706 168.554 274.735C171.849 275.579 175.107 276.495 178.402 277.302C182.576 278.292 186.786 279.136 191.032 279.796C206.774 282.216 222.772 282.18 238.514 279.613C246.788 278.256 254.915 276.202 262.859 273.598C264.873 272.938 263.994 269.748 261.981 270.444L262.017 270.298ZM114.007 96.0668C105.806 94.6365 97.6056 94.8199 89.515 96.8369C85.4148 97.8637 81.461 99.2573 77.5804 100.871C77.8733 97.497 76.775 94.0131 74.5419 91.4094C73.6266 90.3459 72.4918 89.4657 71.2836 88.7689C72.5284 88.1822 73.6999 87.4121 74.7615 86.4586C77.0313 84.3683 78.459 81.2511 78.3126 78.1706C80.2163 78.794 81.7173 80.4443 82.4861 82.3513C83.9504 85.8351 82.9986 89.9058 82.0834 93.3897C81.8637 94.1598 82.2298 94.8199 82.8521 95.26C84.7924 96.6169 86.9158 95.37 88.1239 93.7197C89.515 91.8494 89.8811 89.429 90.357 87.2287C91.4919 82.0946 92.0777 76.7404 90.9062 71.6062C89.8079 66.7288 87.0622 62.3281 84.4995 58.0741C82.12 54.1135 79.4109 50.2628 75.4937 47.6591C71.6863 45.1287 67.1834 44.0285 62.6805 43.5151C58.3606 43.0384 53.9309 43.0384 49.611 43.5151C45.5474 43.9552 41.3373 44.9453 38.0425 47.4757C36.3951 48.7226 35.2602 50.2995 33.9057 51.8031C33.1735 52.6466 31.5627 54.4802 30.4644 53.0866C30.0251 52.4999 29.8787 51.6564 29.7688 50.9596C29.5858 49.6394 29.5126 48.2459 29.4028 46.9256C29.1831 44.2119 28.9268 41.4615 28.7072 38.7477C28.5607 36.7674 28.4143 34.4937 30.2082 33.2101C32.1484 31.8533 34.7111 31.1565 36.9442 30.5697C45.5108 28.2594 54.956 27.3792 63.7056 29.2495C71.9792 31.0465 79.3011 35.3371 85.5612 40.9847C88.4533 43.5885 91.199 46.3756 93.6885 49.3827C96.2145 52.4999 98.411 55.9104 100.425 59.3576C103.024 63.8317 105.44 68.4157 107.527 73.1831C108.552 75.4935 109.43 77.8772 110.199 80.2609C110.895 82.4613 111.444 84.735 112.213 86.9353C113.531 90.7493 115.434 94.6365 118.729 97.0569C117.155 96.6535 115.581 96.3601 114.043 96.0668H114.007ZM51.3316 87.7788C53.1621 88.5122 55.0292 89.5391 56.0176 91.2627C56.0542 91.8128 56.0176 92.2895 55.8346 92.8029C55.7247 93.0596 55.5417 93.2797 55.1024 93.4997C55.2488 93.4264 54.48 93.6464 54.5899 93.6097C54.5166 93.6097 54.0041 93.6097 53.7478 93.6097C53.1255 93.6097 52.3201 93.353 51.6245 93.133C50.1235 92.5829 48.6592 91.7027 47.4877 90.6392C46.8653 90.0892 46.243 89.4657 45.7304 88.8056C45.4376 88.4022 45.1813 87.9988 44.925 87.5954C44.8518 87.4487 44.7786 87.3021 44.7054 87.1554C44.5956 86.8253 44.5589 86.7153 44.5223 86.6053C44.5223 86.3486 44.5223 86.1285 44.5223 85.8718C46.8287 86.3486 49.1351 86.8987 51.3316 87.7788ZM163.466 274.222C159.731 276.569 155.704 278.366 151.494 279.613C149.884 280.089 148.273 280.456 146.662 280.786C146.332 280.859 145.966 280.896 145.637 280.969C145.49 280.969 145.381 281.006 145.234 281.043C145.198 281.043 144.941 281.079 144.831 281.116C144.722 281.116 144.319 281.189 144.209 281.189C143.953 281.189 143.733 281.226 143.477 281.263C142.928 281.299 142.379 281.373 141.83 281.373C141.317 281.373 140.841 281.263 140.365 281.116C139.926 281.006 139.633 280.896 139.413 280.786C139.34 280.786 139.23 280.713 139.157 280.676C139.67 279.539 139.779 279.429 140.365 278.806C141.537 277.559 142.635 276.752 143.88 275.872C144.539 275.395 145.198 274.955 145.893 274.552C151.568 271.581 158.23 272.388 164.308 273.708C164.015 273.892 163.722 274.075 163.429 274.258L163.466 274.222Z" fill="white"/>
</svg>
