<svg width="264" height="320" viewBox="0 0 264 320" fill="none" xmlns="http://www.w3.org/2000/svg">
<path d="M258.075 209.687C251.272 198.774 239.989 189.632 223.558 181.725C219.823 179.924 215.905 178.261 211.562 176.597C210.893 175.697 210.195 174.796 209.527 173.926L209.269 173.59C207.841 168.096 206.049 162.723 203.923 157.61C202.845 155.015 201.691 152.466 200.476 150.039L200.37 149.841C199.975 149.032 199.52 148.101 198.624 147.628C198.092 147.338 197.469 147.384 196.862 147.414C196.285 147.445 195.738 147.475 195.45 147.185C195.009 146.727 194.827 145.659 194.691 144.789C194.645 144.468 194.584 144.163 194.523 143.919C194.235 142.652 193.886 141.324 193.278 140.118C192.382 138.378 190.56 136.455 188.115 136.303C187.903 136.303 187.66 136.303 187.417 136.348C186.991 136.394 186.551 136.425 186.293 136.257C186.126 136.135 185.944 135.723 185.822 135.433C185.761 135.295 185.716 135.173 185.655 135.081C185.063 133.937 184.425 132.807 183.772 131.754C182.512 129.724 181.069 127.755 179.49 125.893C175.921 121.696 171.654 118.124 166.81 115.316C166.4 115.087 165.944 115.056 165.55 115.255C165.124 115.484 164.821 115.942 164.76 116.461C164.092 122.215 164.957 127.999 165.793 133.586L165.899 134.303C166.324 137.127 166.704 139.691 167.144 142.24C165.382 141.171 163.894 140.301 162.482 139.538C159.323 137.814 156.043 136.18 152.87 134.593C150.774 133.555 148.694 132.502 146.628 131.434L144.988 130.579C140.949 128.473 136.788 126.29 132.415 124.932C129.454 123.924 126.401 122.825 123.44 121.757C108.953 116.491 93.9803 111.057 78.4759 114.598C77.3066 114.873 75.9551 115.209 74.6643 115.652C74.3302 115.423 73.9809 115.209 73.5709 115.011C73.328 114.888 73.085 114.766 72.8269 114.644C72.0524 114.293 71.3235 113.957 70.7464 113.423C69.6531 112.431 69.5772 110.89 69.6379 109.562C70.4579 104.342 71.6879 96.4812 67.026 91.5207C63.7763 88.056 57.9451 86.4686 54.2246 89.9486C52.3416 91.7039 51.552 94.3138 51.1268 96.298C46.7078 94.5581 42.6077 94.9091 39.8288 97.2596C36.245 100.282 34.9846 105.883 36.8979 110.294C38.948 115.011 43.944 116.613 48.3478 118.033C49.0919 118.262 49.836 118.506 50.5345 118.75C52.1594 119.315 53.5716 119.895 54.6346 121.36C55.4394 122.474 56.0469 123.894 56.4872 125.695C57.4895 129.755 57.3224 134.395 56.0165 138.775C55.2117 141.461 53.2224 146.193 48.9856 147.841C48.4086 147.811 47.8315 147.78 47.2545 147.765C44.5666 147.689 41.7421 147.841 39.3428 149.536C38.4621 150.161 37.6117 150.955 36.7005 152.008C35.9868 151.245 35.2427 150.512 34.4683 149.841C30.9452 146.788 26.8755 145.216 23.0032 143.995C18.812 142.652 14.6208 141.004 13.5275 136.867C12.586 133.265 14.0893 129.236 17.0201 127.48C19.3587 126.076 22.3199 126.198 25.2051 127.77C24.9621 130.518 25.8885 132.441 27.8322 133.189C28.9256 133.616 30.1708 133.448 30.9604 132.777C31.5982 132.227 31.8564 131.434 31.6589 130.518C31.3097 128.808 29.5633 127.48 28.1663 126.488L28.2574 126.137C28.7433 123.848 29.3659 121.528 31.1578 120.307C32.236 119.559 33.5875 119.33 35.0453 119.62C37.1105 120.032 39.2669 121.497 40.4362 123.283C43.124 127.404 42.2281 133.143 41.4992 137.753V137.905C41.3929 138.424 41.5903 138.913 41.9851 139.248C42.3951 139.584 42.957 139.691 43.3973 139.508C43.7922 139.355 44.0503 139.019 44.1262 138.561C44.9007 133.616 45.8726 127.465 43.124 122.444C41.1043 118.781 36.8524 116.415 32.9801 116.827C29.3052 117.224 26.9211 119.879 25.7062 124.932C24.1725 124.184 22.4869 123.787 20.8317 123.756H20.6798C16.3823 123.756 12.6619 126.519 11.1737 130.823C9.77664 134.868 10.6878 139.309 13.5123 142.133C16.0331 144.667 19.4042 145.735 22.6691 146.758C23.9447 147.155 25.281 147.582 26.5111 148.086C29.6545 149.352 32.4942 151.398 34.9694 154.16L34.529 154.71C32.6004 157.259 30.8693 159.548 29.1989 162.006C26.4503 166.066 23.1551 171.53 22.1528 177.726C21.4087 182.321 21.5454 187.388 22.5476 192.364C23.398 196.592 25.1596 201.064 28.0752 206.467C31.7501 213.213 36.5183 219.563 42.2736 225.332C49.2893 232.384 57.0491 238.092 64.6874 241.831C70.1846 244.533 76.1828 246.41 81.847 248.089C100.935 253.782 121.633 257.674 143.379 259.659C149.407 260.208 155.466 260.574 161.404 260.758C168.253 261.139 174.296 261.109 179.9 260.666C184.926 260.269 190.803 259.475 196.209 256.621C201.554 253.782 205.518 249.493 207.34 244.502C208.13 242.335 208.54 239.985 208.57 237.481C211.789 233.513 214.401 228.949 216.345 223.958C219.443 215.93 220.551 207.245 219.564 198.82C219.048 194.455 218.015 190.319 216.482 186.518L216.193 185.755C215.479 184 214.766 182.183 213.9 180.443C229.921 186.9 241.842 194.592 250.315 203.979C258.925 213.503 262.691 224.477 260.915 234.856C259.442 243.526 254.476 251.813 246.154 259.475C237.878 267.092 227.248 273.456 213.657 278.905C200.157 284.324 184.911 288.292 168.328 290.688C151.047 293.207 133.068 293.863 114.936 292.688C97.4426 291.543 80.8448 288.689 65.6289 284.171C50.6864 279.745 38.3406 274.22 27.9233 267.275C17.5516 260.361 10.2322 252.607 6.17767 244.258C4.158 240.076 2.97353 235.574 2.76093 231.239C2.41167 224.187 4.52245 216.922 8.89588 210.237C10.4904 207.795 12.3734 205.429 14.636 203.033C14.6056 210.496 17.3086 218.525 23.1399 228.186L23.6106 228.98C26.1618 233.223 28.7889 237.604 31.9778 241.419C34.8783 244.899 38.705 247.998 43.9896 251.142C48.0289 253.553 52.4327 255.583 57.0947 257.217C57.4591 257.537 57.611 257.873 57.5654 258.224C57.4591 258.392 57.368 258.575 57.2921 258.773C57.1554 258.957 56.9732 259.14 56.791 259.308C56.6543 259.46 56.5176 259.582 56.4113 259.72C56.0013 260.208 55.6672 260.712 55.4243 261.215C54.4676 263.154 54.3005 266.023 56.1987 267.733C57.535 268.954 59.8432 269.045 61.4529 267.931C63.0778 266.802 63.3967 264.68 62.1818 262.894C61.9996 262.62 61.7111 262.314 61.3618 261.963C60.7544 261.322 59.8432 260.361 59.8584 259.781C59.9192 259.674 59.9799 259.552 60.0255 259.445C60.147 259.338 60.314 259.247 60.5266 259.17C61.4529 258.834 62.5766 259.002 63.427 259.124C66.3123 259.857 69.2734 260.452 72.2346 260.88C76.274 261.46 80.4044 261.765 84.4134 261.795C85.5219 262.07 86.5849 262.498 87.6935 263.139C88.4679 263.581 89.2424 264.085 90.0168 264.573C92.811 266.359 95.7266 268.206 99.2496 268.206H99.3256C101.087 268.191 103.38 267.443 104.063 265.398C104.792 263.23 103.274 261.414 101.755 260.513C99.5989 259.247 96.9414 259.033 94.3903 258.926C92.5832 258.865 90.7609 258.926 89.0146 258.987C87.9364 259.018 86.8734 259.063 85.8105 259.063H85.1271C84.6564 258.941 84.2008 258.85 83.7452 258.804C83.0163 258.728 82.2267 258.728 81.4674 258.728C80.7081 258.728 79.9792 258.728 79.2503 258.651L81.0726 257.369C81.2852 257.217 81.5281 257.064 81.7711 256.911C82.7582 256.27 83.8819 255.568 84.3223 254.454C84.6715 253.553 84.5652 252.668 84.0186 251.92C83.153 250.73 81.437 250.18 80.1615 250.257C77.7773 250.409 75.6058 252.164 74.9832 254.454C74.8769 254.82 74.8313 255.217 74.7858 255.599C74.6491 256.774 74.5276 257.507 73.6013 257.705C72.5231 257.949 71.2172 257.69 69.972 257.415C69.5316 257.323 69.0912 257.232 68.6812 257.171C68.0738 257.079 67.4208 256.957 66.7678 256.82C65.6593 256.606 64.5204 256.377 63.4422 256.285C61.7262 255.828 60.0255 255.324 58.3854 254.759C57.6565 254.225 56.7758 253.828 55.6976 253.523C56.958 253.431 58.2336 253.294 59.4636 253.05C60.8455 252.79 62.0451 252.058 62.6677 251.111C63.1385 250.379 63.2752 249.509 63.0626 248.623C62.4703 246.166 59.8888 245.143 57.7932 245.418C55.6976 245.708 53.6476 246.746 51.6734 247.753C51.0205 248.074 50.3827 248.41 49.7601 248.684C49.0919 248.99 48.8489 249.677 49.1526 250.348C49.3652 250.806 49.8208 251.172 50.3523 251.218C50.2764 251.264 50.2004 251.294 50.1245 251.34C46.9659 249.799 43.9592 248.013 41.1954 246.074C36.9435 243.068 33.3749 239.206 29.9582 233.925L29.5482 233.269C26.3288 228.278 23.0032 223.119 20.6798 217.578C17.9009 210.954 16.8531 205.002 17.5364 199.965C17.7035 199.568 17.6427 199.141 17.3846 198.759C17.1264 198.362 16.6709 198.118 16.2608 198.118H16.2457C15.7445 198.057 15.289 198.286 15.0764 198.713C8.16697 205.353 3.56577 212.45 1.40942 219.792C-0.306538 225.668 -0.458393 231.895 0.969044 237.817C3.17094 246.914 8.95662 255.507 18.1742 263.352C27.2855 271.106 38.6898 277.486 53.0553 282.874C67.3753 288.231 83.5174 292.032 101.026 294.153C111.246 295.374 121.603 296 131.974 296C140.114 296 148.268 295.618 156.408 294.855C174.175 293.192 190.742 289.803 205.67 284.766C220.567 279.745 232.563 273.67 242.343 266.206C252.259 258.636 258.895 250.272 262.053 241.343C265.668 231.101 264.21 219.563 258.075 209.687ZM28.8496 130.213C29.0319 130.411 29.4874 130.93 29.29 131.098C28.9559 131.373 28.0904 130.594 27.9385 130.411C27.6044 129.968 27.4678 129.434 27.4526 128.854C27.9537 129.282 28.4244 129.739 28.8496 130.213ZM74.1176 118.384C74.1176 118.384 74.1936 118.475 74.2239 118.475C74.1936 118.643 74.0721 118.918 74.0113 119.055C73.6621 119.91 73.1457 120.704 72.6446 121.452C71.6576 122.932 70.3061 125.008 68.6357 125.771C67.8308 126.137 68.1497 125.664 68.4534 124.977C69.0305 123.68 69.9264 122.459 70.6857 121.268C71.5209 119.971 72.7357 119.055 74.1176 118.384ZM41.7269 151.276C43.7011 150.253 46.1611 150.345 48.7123 150.558C48.8945 150.635 49.0919 150.65 49.3197 150.604L49.6841 150.635C52.3568 150.848 55.1357 151.291 58.188 151.993C63.7155 153.245 69.0608 155.076 74.0721 156.831C79.7514 158.831 84.2463 160.617 88.2249 162.479C98.8244 167.439 106.554 173.224 111.869 180.169C118.186 188.456 121.071 197.813 119.963 206.513C118.626 217.044 111.428 226.065 102.469 228.43C98.2778 229.545 93.4488 229.575 87.2683 228.537C81.7711 227.606 77.0636 226.431 72.8876 224.935C67.7397 223.088 63.5637 220.585 60.4507 217.517C57.3376 214.434 54.8168 210.359 52.9642 205.429C50.4738 198.835 49.4867 191.753 48.53 184.915C48.0593 181.527 47.5734 178.016 46.9052 174.613C45.2196 165.943 42.4558 159.228 38.4772 154.099C39.2821 153.122 40.3754 151.978 41.7269 151.276ZM171.821 220.982L171.517 220.372C167.539 212.236 163.424 203.842 160.417 195.172C159.278 191.921 158.063 188.06 157.577 184.061C157.365 182.275 157.167 179.68 157.85 177.314C163.758 181.527 168.769 186.716 172.747 192.715C173.765 194.241 174.722 195.828 175.587 197.431C175.83 197.889 176.058 198.347 176.286 198.805C176.498 199.232 176.711 199.675 176.939 200.102C177.409 200.972 177.911 201.079 178.533 201.216C178.685 201.247 178.837 201.277 179.019 201.323C182.208 202.163 184.577 205.307 184.531 208.649C184.516 209.184 184.79 209.626 185.245 209.855C185.746 210.099 186.384 210.023 186.84 209.657C187.295 209.275 187.857 209.123 188.51 209.214C189.482 209.352 190.53 210.023 191.122 210.878C192.306 212.618 192.291 215.014 192.261 217.12V217.441C192.261 217.929 192.519 218.387 192.959 218.632C193.4 218.891 193.901 218.891 194.311 218.632C196.574 217.273 198.973 219.379 200.203 220.768C202.086 222.875 203.27 225.744 204.09 228.003C205.153 230.918 205.73 233.772 205.821 236.505C205.427 236.978 205.001 237.451 204.576 237.924C199.17 243.77 192.139 247.708 183.666 249.631C175.815 251.417 166.886 252.149 157.122 251.829C146.811 251.478 138.322 249.326 131.215 245.235C126.887 242.747 123.85 240.061 121.922 237.008C119.78 233.62 119.052 229.621 119.887 225.729C120.661 222.081 122.559 218.616 125.369 215.686C127.191 213.778 129.955 211.214 132.977 210.878C133.402 210.832 133.827 210.817 134.267 210.817C136.363 210.817 138.504 211.321 140.554 211.9C143.804 212.801 147.023 214.068 149.741 215.182C151.564 215.93 153.432 216.754 155.223 217.533C159.05 219.227 163.014 220.967 167.083 222.218C168.328 222.6 169.346 222.844 170.318 222.981C170.88 223.058 171.426 222.844 171.73 222.417C172.034 222.005 172.064 221.47 171.821 220.982ZM215.814 193.341C217.681 200.911 217.636 209.077 215.692 216.937C214.219 222.859 211.668 228.507 208.282 233.33C207.917 230.903 207.219 228.415 206.216 225.958C205.396 223.943 201.084 214.19 194.964 215.442C194.888 212.847 194.448 210.023 192.337 208.146C190.818 206.787 188.829 206.223 187.067 206.619C186.278 202.621 183.119 199.37 179.232 198.576C174.433 188.685 167.068 180.199 157.911 174.018C157.623 173.834 157.228 173.773 156.848 173.88C156.469 173.972 156.165 174.216 156.013 174.537C153.052 180.672 155.239 188.395 157.516 195.142C160.28 203.307 163.97 211.122 168.161 219.7C166.643 219.257 165.14 218.677 163.499 218.021C161.206 217.12 158.898 216.128 156.666 215.167C155.74 214.755 154.798 214.343 153.857 213.946L152.277 213.274C146.704 210.878 140.949 208.405 134.951 208.1C132.157 207.963 129.757 208.711 127.161 210.542C123.653 213.03 120.843 216.281 119.036 219.959C117.108 223.897 116.424 228.034 117.062 231.941C117.882 236.932 120.935 240.671 123.349 242.915C131.078 250.104 141.283 252.821 148.496 253.828C157.106 255.049 166.597 254.927 177.501 253.477C187.569 252.149 195.404 249.203 201.448 244.518C202.845 243.434 204.212 242.228 205.503 240.916C205.275 242.137 204.91 243.327 204.44 244.426C201.038 252.409 192.625 256.972 179.414 257.964C173.947 258.361 168.07 258.392 161.434 258.025C140.934 257.384 119.932 254.607 99.0218 249.768C90.5787 247.814 83.2289 245.785 76.5625 243.556C72.1891 242.091 67.0564 240.213 62.1514 237.298C47.7404 228.736 36.4576 217.014 29.5482 203.368C27.1792 198.713 25.767 194.882 25.114 191.311C24.1421 186.03 24.1573 180.932 25.1444 176.566C26.344 171.347 29.2445 166.707 32.2056 162.463C33.6179 160.418 35.1364 158.419 36.7309 156.328C39.6769 160.372 42.0155 165.669 43.4733 171.667C44.5818 176.246 45.25 180.993 45.8878 185.587C46.8293 192.318 47.8011 199.278 50.2005 205.826C52.1442 211.107 54.7409 215.503 57.9451 218.86C61.2555 222.34 65.553 225.057 71.0805 227.179C75.5602 228.904 80.7233 230.231 86.8431 231.239C90.9432 231.91 97.0933 232.643 102.97 231.132C112.841 228.614 120.692 219.273 122.514 207.902C124.002 198.53 121.102 188.075 114.557 179.207C108.786 171.423 100.404 165.073 88.9387 159.792C84.5501 157.778 79.8122 155.916 73.5709 153.763C68.0282 151.84 62.0907 149.871 55.9406 148.727C55.0902 148.574 54.2398 148.437 53.3742 148.299C57.9147 144.422 59.2662 137.951 59.661 134.334C59.9951 131.327 60.5873 121.192 54.3613 117.407C52.539 116.293 50.489 115.697 48.4997 115.117C45.9181 114.354 43.4733 113.637 41.4536 111.897C38.3861 109.272 37.8546 104.418 40.2539 100.846C43.0481 96.6644 48.1808 98.0838 50.246 98.8928C50.3979 98.9386 50.5345 98.9996 50.6864 99.0607C50.5649 100.862 51.0205 102.525 51.9468 103.533C52.6453 104.296 53.5261 104.662 54.6802 104.662C55.6065 104.647 56.3506 104.25 56.7606 103.548C57.2617 102.709 57.2617 101.549 56.7302 100.511C56.1835 99.3964 55.1509 98.4043 53.6779 97.5191C54.1942 94.8633 54.9991 92.2991 57.125 91.2307C58.8866 90.3454 61.2403 90.6507 63.427 92.0549C69.0608 95.7028 67.8004 103.777 66.9652 109.134C66.9349 109.226 66.9197 109.317 66.9197 109.424C66.7678 112.263 67.5575 114.4 69.2583 115.743C69.8809 116.232 70.625 116.567 71.3235 116.888L71.5968 117.025C70.3972 117.804 69.3494 118.964 68.3319 120.627C68.2105 120.811 68.0586 121.055 67.8764 121.314C66.9045 122.764 65.4467 124.947 65.8719 126.595C66.0237 127.206 66.4338 127.694 67.0715 128.03C69.1975 129.129 71.4753 126.626 72.3409 125.679C74.1632 123.665 75.4691 121.696 76.2436 119.803C76.5017 119.147 76.5625 118.506 76.4258 117.895C78.0203 117.407 79.7059 117.117 81.2093 116.857C88.1338 115.636 95.8481 116.171 104.762 118.475C110.775 120.032 116.698 122.199 122.438 124.291C125.46 125.389 128.558 126.519 131.655 127.557C135.285 128.686 138.762 130.472 142.118 132.197L142.938 132.624C144.548 133.433 146.142 134.273 147.737 135.112C150.273 136.44 152.9 137.814 155.527 139.096C159.506 141.049 163.53 143.262 167.827 145.857L167.994 146.712C168.222 147.857 168.45 149.047 168.936 150.116C169.483 151.321 170.621 152.069 171.684 152.756C173.157 153.718 174.798 154.618 176.878 155.565L177.075 155.671C178.457 156.312 179.9 156.969 181.388 157.289C181.479 157.289 181.859 157.366 182.102 157.396H182.238C182.436 157.427 182.618 157.457 182.815 157.488L183.408 157.564C184.304 157.686 185.245 157.793 186.187 157.747C186.688 157.732 188.191 157.64 188.525 156.373C188.905 154.969 187.477 154.053 186.597 153.504C185.594 152.863 184.501 152.344 183.453 151.84C182.755 151.505 182.041 151.153 181.358 150.772C179.854 149.948 178.381 149.078 176.741 148.116C174.828 146.987 172.915 145.796 171.062 144.651L170.257 144.148C169.65 141.019 169.179 137.814 168.708 134.715L168.556 133.693C167.812 128.824 167.068 123.802 167.296 118.842C170.728 121.055 173.841 123.68 176.544 126.687C178.123 128.427 179.581 130.304 180.857 132.273C181.51 133.265 182.132 134.288 182.694 135.326C182.831 135.57 182.967 135.845 183.104 136.119C183.438 136.806 183.772 137.524 184.304 138.104C184.972 138.851 185.822 139.141 187.052 139.096C188.419 139.035 189.224 139.325 190.013 140.179C191.198 141.461 191.562 143.14 191.957 144.941C192.139 145.75 192.322 146.59 192.595 147.368C192.868 148.177 193.263 149.078 194.053 149.627C194.782 150.116 195.465 150.055 196.072 149.994C196.452 149.963 196.801 149.932 197.166 150.024C197.728 150.161 198.244 151.459 198.563 152.237C198.669 152.512 198.76 152.741 198.836 152.909C199.474 154.221 200.081 155.549 200.658 156.877C203.088 162.433 205.108 168.385 206.687 174.552C206.763 174.842 206.915 175.071 207.052 175.178C208.767 177.391 210.529 179.68 211.744 182.351C213.536 186.335 214.918 189.723 215.814 193.341ZM52.949 99.8238C53.5413 100.221 54.0728 100.694 54.4524 101.259C54.5891 101.457 54.7409 101.701 54.7713 101.945C54.7865 102.022 54.832 102.129 54.8017 102.22C54.665 102.571 54.8168 102.235 54.6802 102.296C54.2094 102.495 53.4957 101.808 53.2831 101.457C52.9946 100.984 52.9338 100.404 52.949 99.8238ZM171.001 147.811C173.643 149.444 176.635 151.276 179.702 152.985C180.462 153.412 181.267 153.809 182.026 154.176C182.451 154.374 182.891 154.588 183.317 154.801C183.043 154.771 182.77 154.725 182.436 154.679C179.824 154.282 177.166 152.771 174.828 151.443L174.722 151.398C174.539 151.291 174.342 151.184 174.129 151.062C173.157 150.543 172.049 149.932 171.487 149.154C171.274 148.834 171.123 148.345 171.001 147.811ZM95.347 261.734H95.514C97.2451 261.857 100.859 262.116 101.467 263.963C101.573 264.253 101.543 264.482 101.406 264.68C101.057 265.169 100.07 265.443 99.3256 265.459C98.3233 265.489 97.1388 265.245 95.9088 264.756C94.3447 264.146 92.8869 263.2 91.4898 262.284C91.1709 262.085 90.8672 261.887 90.5635 261.689C92.1276 261.643 93.7373 261.612 95.347 261.734ZM77.4129 256.285C77.4584 256.041 77.4888 255.782 77.5344 255.538C77.7773 254.24 78.7492 253.263 80.0096 253.034C80.5715 252.928 81.3307 252.973 81.6193 253.309C81.6952 253.401 81.6952 253.447 81.68 253.477C81.6344 253.752 80.9663 254.164 80.6322 254.362C80.4955 254.454 80.3589 254.53 80.2677 254.591L77.3673 256.637C77.3825 256.514 77.3977 256.408 77.4129 256.285ZM59.1751 263.566C59.8736 264.268 60.481 264.955 60.1014 265.504C59.7673 266.008 58.6891 266.1 58.1728 265.794C57.1706 265.199 57.3528 263.535 57.8084 262.543C57.8539 262.437 57.9147 262.33 57.9754 262.223C58.264 262.604 58.598 262.955 58.9169 263.307L59.2358 263.078L58.9625 263.352L59.1751 263.566ZM52.6301 250.363C53.7387 249.86 54.832 249.341 55.9558 248.852C56.6695 248.532 57.8843 248.135 58.8562 248.135C59.251 248.135 59.6003 248.196 59.8736 248.364C60.1925 248.547 60.3596 248.852 60.4051 249.31C60.4203 249.524 60.3747 249.692 60.2533 249.829C59.7369 250.44 58.0969 250.531 57.2162 250.577C57.0339 250.577 56.8669 250.592 56.7302 250.608L51.0812 251.081L52.6301 250.363Z" fill="white"/>
</svg>
