<svg width="48" height="48" viewBox="0 0 48 48" fill="none" xmlns="http://www.w3.org/2000/svg">
<path d="M48 20.0746L45.7266 13.0901L28.3535 20.8405L41.1074 6.74279L35.1549 2.42653L25.665 18.888L27.6774 0H20.3226L22.3382 18.888L12.8451 2.42653L6.89263 6.74279L19.6465 20.8405L2.27344 13.0901L0 20.0746L18.6183 23.9984L0 27.9223L2.27344 34.9068L19.6465 27.1595L6.89263 41.2572L12.8451 45.5735L22.3382 29.1089L20.3226 48H27.6774L25.665 29.1089L35.1549 45.5735L41.1074 41.2572L28.3535 27.1595L45.7266 34.9068L48 27.9223L29.3817 23.9984L48 20.0746Z" fill="#45B035"/>
</svg>
