<svg width="32" height="32" viewBox="0 0 32 32" fill="none" xmlns="http://www.w3.org/2000/svg">
<path d="M27.415 5.09467C27.2404 5.0154 27.0468 4.98799 26.8571 5.01569C26.6674 5.04339 26.4896 5.12504 26.345 5.25092C22.845 8.27842 19.88 6.81092 16.4438 5.10967C12.8838 3.34592 8.8475 1.34967 4.345 5.25092C4.23742 5.34417 4.15099 5.45931 4.09149 5.58865C4.032 5.718 4.0008 5.85855 4 6.00092V27.0009C4 27.2661 4.10536 27.5205 4.29289 27.708C4.48043 27.8956 4.73478 28.0009 5 28.0009C5.26522 28.0009 5.51957 27.8956 5.70711 27.708C5.89464 27.5205 6 27.2661 6 27.0009V21.4722C9.34875 18.8272 12.2337 20.2534 15.5562 21.8984C17.6062 22.9122 19.8137 24.0047 22.1812 24.0047C23.9225 24.0047 25.7488 23.4109 27.6588 21.7547C27.7663 21.6614 27.8528 21.5463 27.9123 21.4169C27.9718 21.2876 28.0029 21.147 28.0037 21.0047V6.00092C28.0027 5.80933 27.9467 5.62207 27.8423 5.46141C27.738 5.30075 27.5896 5.17345 27.415 5.09467ZM6 19.0559V13.2359C8.10625 11.8259 10.08 11.7872 12 12.3184V18.2859C10.1087 17.8097 8.10875 17.8397 6 19.0559ZM26 20.5322C23.8913 22.1972 21.9662 22.2472 20 21.6459V15.6872C17.2975 14.9372 14.7025 13.0622 12 12.3184V5.35967C13.1562 5.71342 14.3263 6.29092 15.5562 6.89967C16.9637 7.59592 18.445 8.32842 20 8.71967V15.6872C21.9188 16.2184 23.8925 16.1797 26 14.7684V20.5322Z" fill="#45B035"/>
</svg>
